<svg width="1024" height="256" viewBox="0 0 1024 256" fill="none" xmlns="http://www.w3.org/2000/svg">
<g clip-path="url(#clip0)">
<path fill-rule="evenodd" clip-rule="evenodd" d="M150.121 196.538L17.2119 127.546L0.00398304 139.884L-0.00128174 147.431L150.121 255.091L300.236 147.436L300.247 139.892L283.031 127.546L150.121 196.538Z" fill="#1C0172"/>
<path fill-rule="evenodd" clip-rule="evenodd" d="M150.122 0.000244141L0.00740889 107.654L-0.000488281 115.202L150.122 222.864L300.237 115.207L300.245 107.66L150.122 0.000244141ZM169.762 106.249L151.459 81.0094L167.064 69.5901L199.598 117.739L186.497 127.329L151.509 112.856L151.359 112.964L171.284 138.459L158.182 148.046L92.3754 124.239L108.03 112.782L142.43 126.179L142.625 126.034L123.535 101.437L135.852 92.4261L169.565 106.394L169.762 106.249Z" fill="#4608AD"/>
<path fill-rule="evenodd" clip-rule="evenodd" d="M150.122 0.000244141L0.00740889 107.654L-0.000488281 115.202L150.122 222.864L300.237 115.207L300.245 107.66L150.122 0.000244141ZM169.762 106.249L151.459 81.0094L167.064 69.5901L199.598 117.739L186.497 127.329L151.509 112.856L151.359 112.964L171.284 138.459L158.182 148.046L92.3754 124.239L108.03 112.782L142.43 126.179L142.625 126.034L123.535 101.437L135.852 92.4261L169.565 106.394L169.762 106.249Z" fill="#4608AD"/>
<path fill-rule="evenodd" clip-rule="evenodd" d="M169.762 106.249L151.459 81.0094L167.064 69.5901L199.598 117.739L186.497 127.329L151.509 112.856L151.359 112.964L171.284 138.459L158.182 148.046L92.3754 124.239L108.03 112.782L142.43 126.179L142.625 126.034L123.535 101.437L135.852 92.4261L169.565 106.394L169.762 106.249Z" fill="white"/>
<path fill-rule="evenodd" clip-rule="evenodd" d="M169.762 106.249L151.459 81.0094L167.064 69.5901L199.598 117.739L186.497 127.329L151.509 112.856L151.359 112.964L171.284 138.459L158.182 148.046L92.3754 124.239L108.03 112.782L142.43 126.179L142.625 126.034L123.535 101.437L135.852 92.4261L169.565 106.394L169.762 106.249Z" fill="white"/>
<path fill-rule="evenodd" clip-rule="evenodd" d="M502.462 138.64C509.464 138.64 515.15 133.073 515.15 124.51C515.15 116.252 509.704 110.266 502.522 110.266C495.22 110.266 489.653 115.952 489.653 124.51C489.653 132.949 494.981 138.635 502.462 138.635V138.64ZM533.585 94.4056V154.377H515.39V147.912H515.15C511.32 152.939 505.694 155.514 498.511 155.514C481.992 155.514 470.262 143.005 470.262 124.452C470.262 106.136 482.111 93.2684 497.613 93.2684C504.078 93.2684 509.883 95.7824 514.134 100.75H514.373V94.4056H533.585Z" fill="#4608AD"/>
<path fill-rule="evenodd" clip-rule="evenodd" d="M590.265 124.51C590.265 115.953 584.698 110.267 577.398 110.267C569.735 110.267 564.228 116.25 564.228 124.51C564.228 133.068 569.914 138.636 577.456 138.636C584.937 138.636 590.265 132.95 590.265 124.51ZM609.658 124.45C609.658 143.006 597.868 155.515 581.407 155.515C574.524 155.515 569.138 153.001 565.247 148.51H564.947V178.617H545.796V94.4038H565.007V100.869H565.247C569.556 95.8411 575.542 93.2666 582.305 93.2666C597.807 93.2666 609.658 106.136 609.658 124.45Z" fill="#4608AD"/>
<path fill-rule="evenodd" clip-rule="evenodd" d="M663.764 124.51C663.764 115.953 658.196 110.267 650.897 110.267C643.234 110.267 637.727 116.25 637.727 124.51C637.727 133.068 643.413 138.636 650.955 138.636C658.436 138.636 663.764 132.95 663.764 124.51ZM683.157 124.45C683.157 143.006 671.366 155.515 654.906 155.515C648.022 155.515 642.636 153.001 638.746 148.51H638.446V178.617H619.295V94.4038H638.506V100.869H638.746C643.055 95.8411 649.041 93.2666 655.804 93.2666C671.306 93.2666 683.157 106.136 683.157 124.45Z" fill="#4608AD"/>
<path fill-rule="evenodd" clip-rule="evenodd" d="M721.94 138.64C728.942 138.64 734.628 133.073 734.628 124.51C734.628 116.252 729.182 110.266 722.001 110.266C714.699 110.266 709.131 115.952 709.131 124.51C709.131 132.949 714.459 138.635 721.94 138.635V138.64ZM753.063 94.4056V154.377H734.868V147.912H734.628C730.798 152.939 725.173 155.514 717.989 155.514C701.471 155.514 689.741 143.005 689.741 124.452C689.741 106.136 701.589 93.2684 717.091 93.2684C723.557 93.2684 729.361 95.7824 733.612 100.75H733.852V94.4056H753.063Z" fill="#4608AD"/>
<path fill-rule="evenodd" clip-rule="evenodd" d="M765.931 154.377H785.024V64.12H765.931V154.377Z" fill="#4608AD"/>
<path fill-rule="evenodd" clip-rule="evenodd" d="M855.83 94.4049L824.347 178.618H805.375L815.728 150.306L792.326 94.4049H812.198L824.407 126.904H824.707L836.198 94.4049H855.83Z" fill="#4608AD"/>
<path fill-rule="evenodd" clip-rule="evenodd" d="M885.158 138.696V138.935H910.655V154.377H860.079V141.568L885.995 110.026V109.787H862.353V94.4056H911.671V107.094L885.158 138.696Z" fill="#4608AD"/>
<path fill-rule="evenodd" clip-rule="evenodd" d="M935.19 118.106L957.633 117.988C956.378 112.181 952.487 108.59 946.74 108.59C940.994 108.59 936.445 111.941 935.19 118.106ZM976.429 123.853C976.429 125.527 976.128 128.223 975.949 129.539H935.129C936.506 136.301 942.431 139.892 949.315 139.892C954.88 139.892 959.729 137.439 963.864 132.65L974.033 144.083C968.95 150.487 959.734 155.515 947.285 155.515C929.509 155.515 916.102 142.946 916.102 124.39C916.102 106.195 928.969 93.2671 946.567 93.2671C964.043 93.2671 976.431 106.016 976.431 123.853H976.429Z" fill="#4608AD"/>
<path fill-rule="evenodd" clip-rule="evenodd" d="M1023.36 93.3274V113.976C1021.62 113.857 1019.83 113.857 1018.87 113.857C1009.77 113.857 1005.1 119.601 1005.1 127.443V154.378H985.948V94.404H1005.1V102.425H1005.34C1009.89 96.4389 1016.12 93.2668 1022.7 93.2668C1022.88 93.2668 1023.18 93.2668 1023.36 93.3274Z" fill="#4608AD"/>
<path fill-rule="evenodd" clip-rule="evenodd" d="M474.331 67.2917L447.099 154.376H428.365L413.76 97.0983H413.581L398.439 154.376H379.705L352.473 67.2917H374.319L389.042 120.74H389.221L402.688 67.2917H424.295L437.583 120.74H437.762L452.485 67.2917H474.331Z" fill="#4608AD"/>
</g>
<defs>
<clipPath id="clip0">
<rect width="1024" height="255.342" fill="white"/>
</clipPath>
</defs>
</svg>
